HIERARCHY
ROOT Hip
{
	OFFSET 0.000000 0.000000 0.000000
	CHANNELS 6 Xposition Yposition Zposition Xrotation Yrotation Zrotation
	JOINT LowerSpine
	{
		OFFSET 0.000000 5.515799 9.266301
		CHANNELS 6 Xposition Yposition Zposition Xrotation Yrotation Zrotation
		JOINT MiddleSpine
		{
			OFFSET 0.000000 -0.397602 8.456199
			CHANNELS 6 Xposition Yposition Zposition Xrotation Yrotation Zrotation
			JOINT Chest
			{
				OFFSET 0.000000 2.096198 10.463503
				CHANNELS 6 Xposition Yposition Zposition Xrotation Yrotation Zrotation
				JOINT Neck
				{
					OFFSET 0.000000 0.441296 23.579298
					CHANNELS 6 Xposition Yposition Zposition Xrotation Yrotation Zrotation
					JOINT Head
					{
						OFFSET -0.000100 -3.621802 13.315502
						CHANNELS 6 Xposition Yposition Zposition Xrotation Yrotation Zrotation
						End Site
						{
							OFFSET 0.000100 -0.555403 18.605103
						}
					}
				}
				JOINT LClavicle
				{
					OFFSET 2.142500 -7.016503 22.755198
					CHANNELS 6 Xposition Yposition Zposition Xrotation Yrotation Zrotation
					JOINT LShoulder
					{
						OFFSET 12.516600 5.281299 3.263901
						CHANNELS 6 Xposition Yposition Zposition Xrotation Yrotation Zrotation
						JOINT LForearm
						{
							OFFSET 29.541901 0.256001 -0.104698
							CHANNELS 6 Xposition Yposition Zposition Xrotation Yrotation Zrotation
							JOINT LHand
							{
								OFFSET 24.644199 0.147600 0.071499
								CHANNELS 6 Xposition Yposition Zposition Xrotation Yrotation Zrotation
								JOINT LFinger1
								{
									OFFSET 9.551399 -2.652900 0.835300
									CHANNELS 6 Xposition Yposition Zposition Xrotation Yrotation Zrotation
									JOINT LFinger11
									{
										OFFSET 3.572701 -0.629500 -0.871201
										CHANNELS 6 Xposition Yposition Zposition Xrotation Yrotation Zrotation
										JOINT LFinger12
										{
											OFFSET 2.439003 -0.429900 -0.594898
											CHANNELS 6 Xposition Yposition Zposition Xrotation Yrotation Zrotation
											End Site
											{
												OFFSET 1.735603 -0.281500 -0.518101
											}
										}
									}
								}
								JOINT LFinger2
								{
									OFFSET 9.693901 -0.231000 0.964600
									CHANNELS 6 Xposition Yposition Zposition Xrotation Yrotation Zrotation
									JOINT LFinger21
									{
										OFFSET 4.417397 0.026100 0.012299
										CHANNELS 6 Xposition Yposition Zposition Xrotation Yrotation Zrotation
										JOINT LFinger22
										{
											OFFSET 2.448601 0.014900 0.007500
											CHANNELS 6 Xposition Yposition Zposition Xrotation Yrotation Zrotation
											End Site
											{
												OFFSET 2.199303 -0.002900 -0.155300
											}
										}
									}
								}
								JOINT LFinger3
								{
									OFFSET 9.186996 2.173501 0.643799
									CHANNELS 6 Xposition Yposition Zposition Xrotation Yrotation Zrotation
									JOINT LFinger31
									{
										OFFSET 4.008400 0.251000 -0.202900
										CHANNELS 6 Xposition Yposition Zposition Xrotation Yrotation Zrotation
										JOINT LFinger32
										{
											OFFSET 2.284203 0.143500 -0.114899
											CHANNELS 6 Xposition Yposition Zposition Xrotation Yrotation Zrotation
											End Site
											{
												OFFSET 2.019600 0.095500 -0.248299
											}
										}
									}
								}
								JOINT LFinger4
								{
									OFFSET 8.525200 3.753601 -0.647800
									CHANNELS 6 Xposition Yposition Zposition Xrotation Yrotation Zrotation
									JOINT LFinger41
									{
										OFFSET 2.465500 0.680600 -0.514198
										CHANNELS 6 Xposition Yposition Zposition Xrotation Yrotation Zrotation
										JOINT LFinger42
										{
											OFFSET 1.807999 0.499400 -0.376499
											CHANNELS 6 Xposition Yposition Zposition Xrotation Yrotation Zrotation
											End Site
											{
												OFFSET 1.604698 0.368200 -0.440899
											}
										}
									}
								}
								JOINT LFinger0
								{
									OFFSET 1.975899 -1.497900 -1.495499
									CHANNELS 6 Xposition Yposition Zposition Xrotation Yrotation Zrotation
									JOINT LFinger01
									{
										OFFSET 3.678703 -2.773500 -1.208099
										CHANNELS 6 Xposition Yposition Zposition Xrotation Yrotation Zrotation
										JOINT LFinger02
										{
											OFFSET 2.422401 -1.745200 -0.866798
											CHANNELS 6 Xposition Yposition Zposition Xrotation Yrotation Zrotation
											End Site
											{
												OFFSET 1.781303 -1.219800 -0.613201
											}
										}
									}
								}
							}
						}
					}
				}
				JOINT RClavicle
				{
					OFFSET -2.142500 -7.016403 22.755198
					CHANNELS 6 Xposition Yposition Zposition Xrotation Yrotation Zrotation
					JOINT RShoulder
					{
						OFFSET -12.518800 5.282199 3.264500
						CHANNELS 6 Xposition Yposition Zposition Xrotation Yrotation Zrotation
						JOINT RForearm
						{
							OFFSET -29.541901 0.256001 -0.104698
							CHANNELS 6 Xposition Yposition Zposition Xrotation Yrotation Zrotation
							JOINT RHand
							{
								OFFSET -24.644196 0.147600 0.071499
								CHANNELS 6 Xposition Yposition Zposition Xrotation Yrotation Zrotation
								JOINT RFinger1
								{
									OFFSET -9.551399 -2.652900 0.835400
									CHANNELS 6 Xposition Yposition Zposition Xrotation Yrotation Zrotation
									JOINT RFinger11
									{
										OFFSET -3.572701 -0.629500 -0.871201
										CHANNELS 6 Xposition Yposition Zposition Xrotation Yrotation Zrotation
										JOINT RFinger12
										{
											OFFSET -2.439003 -0.429900 -0.595001
											CHANNELS 6 Xposition Yposition Zposition Xrotation Yrotation Zrotation
											End Site
											{
												OFFSET -1.735603 -0.281500 -0.518101
											}
										}
									}
								}
								JOINT RFinger2
								{
									OFFSET -9.693901 -0.231000 0.964699
									CHANNELS 6 Xposition Yposition Zposition Xrotation Yrotation Zrotation
									JOINT RFinger21
									{
										OFFSET -4.417503 0.026100 0.012299
										CHANNELS 6 Xposition Yposition Zposition Xrotation Yrotation Zrotation
										JOINT RFinger22
										{
											OFFSET -2.448601 0.015000 0.007500
											CHANNELS 6 Xposition Yposition Zposition Xrotation Yrotation Zrotation
											End Site
											{
												OFFSET -2.199303 -0.002900 -0.155300
											}
										}
									}
								}
								JOINT RFinger3
								{
									OFFSET -9.186996 2.173501 0.643799
									CHANNELS 6 Xposition Yposition Zposition Xrotation Yrotation Zrotation
									JOINT RFinger31
									{
										OFFSET -4.008400 0.251000 -0.202900
										CHANNELS 6 Xposition Yposition Zposition Xrotation Yrotation Zrotation
										JOINT RFinger32
										{
											OFFSET -2.284203 0.143500 -0.114899
											CHANNELS 6 Xposition Yposition Zposition Xrotation Yrotation Zrotation
											End Site
											{
												OFFSET -2.019600 0.095500 -0.248299
											}
										}
									}
								}
								JOINT RFinger4
								{
									OFFSET -8.525200 3.753600 -0.647800
									CHANNELS 6 Xposition Yposition Zposition Xrotation Yrotation Zrotation
									JOINT RFinger41
									{
										OFFSET -2.465500 0.680600 -0.514099
										CHANNELS 6 Xposition Yposition Zposition Xrotation Yrotation Zrotation
										JOINT RFinger42
										{
											OFFSET -1.807999 0.499400 -0.376400
											CHANNELS 6 Xposition Yposition Zposition Xrotation Yrotation Zrotation
											End Site
											{
												OFFSET -1.604698 0.368200 -0.440899
											}
										}
									}
								}
								JOINT RFinger0
								{
									OFFSET -1.975899 -1.497799 -1.495399
									CHANNELS 6 Xposition Yposition Zposition Xrotation Yrotation Zrotation
									JOINT RFinger01
									{
										OFFSET -3.678703 -2.773600 -1.208302
										CHANNELS 6 Xposition Yposition Zposition Xrotation Yrotation Zrotation
										JOINT RFinger02
										{
											OFFSET -2.422302 -1.745200 -0.866699
											CHANNELS 6 Xposition Yposition Zposition Xrotation Yrotation Zrotation
											End Site
											{
												OFFSET -1.781303 -1.219800 -0.613201
											}
										}
									}
								}
							}
						}
					}
				}
			}
		}
	}
	JOINT RThigh
	{
		OFFSET -10.956100 0.898699 4.188600
		CHANNELS 6 Xposition Yposition Zposition Xrotation Yrotation Zrotation
		JOINT RShin
		{
			OFFSET -0.793200 0.000007 -43.115398
			CHANNELS 6 Xposition Yposition Zposition Xrotation Yrotation Zrotation
			JOINT RFoot
			{
				OFFSET 0.000000 0.000007 -42.336796
				CHANNELS 6 Xposition Yposition Zposition Xrotation Yrotation Zrotation
				JOINT RToe
				{
					OFFSET 0.000000 -9.730399 -4.653198
					CHANNELS 6 Xposition Yposition Zposition Xrotation Yrotation Zrotation
					End Site
					{
						OFFSET 0.000000 -6.527802 0.000000
					}
				}
			}
		}
	}
	JOINT LThigh
	{
		OFFSET 10.955900 0.898799 4.188900
		CHANNELS 6 Xposition Yposition Zposition Xrotation Yrotation Zrotation
		JOINT LShin
		{
			OFFSET 0.793300 0.000007 -43.115700
			CHANNELS 6 Xposition Yposition Zposition Xrotation Yrotation Zrotation
			JOINT LFoot
			{
				OFFSET 0.000000 0.000007 -42.336796
				CHANNELS 6 Xposition Yposition Zposition Xrotation Yrotation Zrotation
				JOINT LToe
				{
					OFFSET 0.000000 -9.730499 -4.653198
					CHANNELS 6 Xposition Yposition Zposition Xrotation Yrotation Zrotation
					End Site
					{
						OFFSET 0.000000 -6.527802 0.000000
					}
				}
			}
		}
	}
}
MOTION
Frames: 4
Frame Time: 0.041667
-4.322800 -36.734520 74.049606 8.989120 2.473139 -9.067541 0.000003 5.515808 9.266302 6.221605 1.732850 3.041018 0.000000 -0.397598 8.456190 6.221605 1.732850 3.041017 0.000001 2.096195 10.463490 6.221609 1.732850 3.041015 -0.000000 0.441307 23.579292 -0.959954 -0.667020 -0.191448 -0.000101 -3.621783 13.315499 -0.401018 -1.399475 -0.046811 2.142500 -7.016507 22.755205 -2.111420 -4.481875 0.042403 12.516596 5.281291 3.263891 27.277653 56.884547 -33.313732 29.541901 0.255982 -0.104696 0.130443 -0.035061 -46.148597 24.644182 0.147596 0.071484 0.000001 -0.000003 -0.000001 9.551385 -2.652897 0.835312 -0.000000 0.000000 -0.000003 3.572668 -0.629503 -0.871204 0.000006 -0.000002 0.000003 2.438971 -0.429915 -0.594892 0.000003 -0.000001 0.000001 9.693886 -0.231000 0.964613 0.000002 -0.000000 0.000000 4.417405 0.026099 0.012307 0.000001 0.000000 0.000000 2.448601 0.014905 0.007489 -0.000003 0.000000 0.000002 9.187013 2.173502 0.643814 -0.000621 -0.000660 0.000064 4.008408 0.251000 -0.202911 -0.000001 0.000001 0.000005 2.284214 0.143504 -0.114902 0.000001 0.000004 0.000003 8.525184 3.753599 -0.647788 -0.000002 -0.000001 0.000003 2.465490 0.680598 -0.514213 -0.000000 -0.000002 0.000002 1.808000 0.499393 -0.376518 0.000003 0.000001 0.000001 1.975890 -1.497905 -1.495486 0.000003 -0.000002 -0.000006 3.678714 -2.773510 -1.208087 0.000009 0.000003 0.000003 2.422391 -1.745196 -0.866786 -0.000002 -0.000003 -0.000002 -2.142498 -7.016393 22.755192 0.000003 -12.060313 -0.000001 -12.518784 5.282214 3.264497 49.886141 -45.418822 52.207678 -29.541883 0.256015 -0.104698 0.119564 0.025683 40.564804 -24.644196 0.147602 0.071494 -0.000000 0.000000 -0.000001 -9.551383 -2.652906 0.835401 -0.001596 0.000696 -0.000198 -3.572685 -0.629503 -0.871188 -0.000004 0.000001 0.000003 -2.438986 -0.429885 -0.595014 -0.000000 0.000002 -0.000001 -9.693900 -0.231011 0.964706 0.000000 0.000001 -0.000000 -4.417496 0.026106 0.012299 -0.000002 0.000000 0.000001 -2.448601 0.014999 0.007496 -0.000003 -0.000000 -0.000001 -9.186981 2.173490 0.643798 0.000005 -0.000000 -0.000001 -4.008385 0.250996 -0.202905 0.000003 -0.000001 -0.000000 -2.284189 0.143501 -0.114897 0.000002 -0.000001 0.000000 -8.525185 3.753583 -0.647813 0.000006 0.000000 0.000001 -2.465501 0.680593 -0.514094 0.000001 -0.000000 0.000003 -1.807989 0.499394 -0.376401 0.000001 0.000003 0.000005 -1.975893 -1.497811 -1.495404 0.000001 -0.000002 0.000000 -3.678709 -2.773587 -1.208302 -0.000001 0.000003 0.000008 -2.422292 -1.745181 -0.866710 -0.000003 -0.000006 -0.000006 -10.956100 0.898707 4.188591 -3.065662 -3.211421 1.302570 -0.793192 -0.000013 -43.115391 18.995922 -0.000001 0.000003 -0.000003 0.000006 -42.336803 -10.955623 -0.544879 0.889599 0.000000 -9.730392 -4.653204 -3.279765 0.000000 -0.000001 10.955904 0.898806 4.188895 -44.146398 -7.111398 -3.928505 0.793301 0.000013 -43.115688 15.800794 -0.000007 -0.000001 -0.000000 0.000007 -42.336796 0.631099 0.301157 -0.603739 0.000001 -9.730500 -4.653190 0.000002 -0.000001 0.000001 
-3.848100 -39.665821 73.165810 9.930952 2.548557 -10.254811 0.000002 5.515800 9.266297 6.858625 1.899270 3.275627 -0.000000 -0.397602 8.456198 6.858622 1.899269 3.275628 0.000000 2.096196 10.463480 6.858629 1.899272 3.275625 -0.000001 0.441305 23.579290 -0.967756 -0.526940 -0.151453 -0.000098 -3.621796 13.315488 -0.566320 -1.362569 -0.047670 2.142501 -7.016509 22.755199 -2.165875 -5.245929 0.084135 12.516604 5.281288 3.263907 26.745272 54.216498 -38.708830 29.541906 0.255992 -0.104692 0.126369 -0.030116 -43.225597 24.644199 0.147596 0.071496 0.000006 -0.000000 -0.000001 9.551392 -2.652910 0.835317 0.000001 0.000000 0.000000 3.572682 -0.629513 -0.871203 0.000003 -0.000003 0.000001 2.438971 -0.429895 -0.594902 -0.000000 -0.000002 -0.000001 9.693875 -0.231006 0.964604 -0.000001 -0.000003 -0.000001 4.417406 0.026105 0.012296 0.000003 0.000001 -0.000003 2.448599 0.014897 0.007485 -0.000002 -0.000002 0.000000 9.186998 2.173489 0.643802 -0.000676 -0.000721 0.000070 4.008393 0.251001 -0.202914 0.000004 0.000001 0.000000 2.284217 0.143510 -0.114897 -0.000002 -0.000000 0.000002 8.525182 3.753595 -0.647795 -0.000002 -0.000003 0.000003 2.465482 0.680593 -0.514201 0.000001 -0.000003 0.000002 1.808006 0.499408 -0.376518 -0.000006 0.000000 0.000003 1.975884 -1.497916 -1.495491 0.000002 0.000000 -0.000007 3.678729 -2.773507 -1.208081 0.000003 0.000003 -0.000001 2.422409 -1.745194 -0.866795 0.000006 0.000000 0.000001 -2.142498 -7.016393 22.755190 0.000006 -11.917703 -0.000001 -12.518785 5.282211 3.264502 48.072350 -43.648027 55.897595 -29.541887 0.256020 -0.104696 0.116053 0.025544 39.111347 -24.644203 0.147603 0.071490 -0.000002 0.000000 0.000001 -9.551387 -2.652895 0.835408 -0.001743 0.000756 -0.000215 -3.572670 -0.629500 -0.871198 -0.000004 -0.000000 0.000003 -2.438982 -0.429892 -0.595004 0.000002 0.000006 -0.000001 -9.693908 -0.231000 0.964704 -0.000005 0.000001 0.000000 -4.417503 0.026102 0.012300 -0.000004 0.000001 0.000001 -2.448610 0.015003 0.007495 0.000006 -0.000001 -0.000000 -9.186988 2.173499 0.643803 -0.000004 0.000001 0.000001 -4.008392 0.250995 -0.202898 0.000005 0.000001 0.000001 -2.284202 0.143500 -0.114896 -0.000003 0.000000 -0.000001 -8.525192 3.753592 -0.647800 0.000001 0.000001 0.000002 -2.465476 0.680592 -0.514098 0.000003 0.000001 0.000004 -1.808005 0.499397 -0.376400 0.000005 0.000001 0.000001 -1.975898 -1.497801 -1.495392 -0.000004 0.000001 0.000004 -3.678709 -2.773584 -1.208302 0.000001 0.000003 0.000010 -2.422295 -1.745194 -0.866695 -0.000004 -0.000001 -0.000004 -10.956100 0.898701 4.188597 -1.440503 -2.527670 1.176324 -0.793191 -0.000013 -43.115391 17.745465 -0.000001 0.000002 -0.000003 0.000013 -42.336803 -12.320490 -1.126781 1.829206 0.000001 -9.730394 -4.653199 -3.281880 0.000000 -0.000002 10.955901 0.898799 4.188892 -45.624608 -7.709201 -4.093600 0.793299 0.000009 -43.115685 16.289026 -0.000007 -0.000002 0.000003 0.000010 -42.336800 -0.772969 0.549153 -1.141150 -0.000002 -9.730505 -4.653191 -0.000002 -0.000001 0.000001 
-3.223000 -42.693527 72.375511 11.553739 2.744123 -11.638549 0.000001 5.515802 9.266313 7.415687 2.052573 3.473456 -0.000001 -0.397602 8.456187 7.415688 2.052573 3.473457 -0.000001 2.096205 10.463498 7.415697 2.052574 3.473455 0.000000 0.441311 23.579279 -1.050619 -0.375553 -0.109031 -0.000098 -3.621780 13.315491 -0.734999 -1.323847 -0.048023 2.142501 -7.016498 22.755192 -2.217447 -6.010346 0.129222 12.516598 5.281295 3.263883 25.462675 51.649771 -43.142244 29.541908 0.255991 -0.104709 0.121822 -0.025774 -40.523943 24.644182 0.147598 0.071505 0.000004 -0.000003 -0.000001 9.551387 -2.652899 0.835296 0.000005 0.000003 -0.000000 3.572674 -0.629514 -0.871216 0.000010 -0.000004 0.000003 2.438963 -0.429905 -0.594899 0.000004 -0.000002 -0.000001 9.693875 -0.231000 0.964588 0.000003 -0.000003 -0.000001 4.417403 0.026102 0.012306 0.000000 -0.000001 -0.000001 2.448601 0.014907 0.007484 0.000004 0.000001 0.000001 9.187005 2.173498 0.643798 -0.000734 -0.000786 0.000074 4.008389 0.251005 -0.202929 -0.000001 -0.000004 -0.000002 2.284221 0.143496 -0.114910 0.000004 0.000004 0.000003 8.525183 3.753597 -0.647796 0.000001 -0.000002 0.000002 2.465499 0.680599 -0.514199 0.000002 0.000000 0.000005 1.808000 0.499400 -0.376519 0.000003 0.000002 0.000002 1.975899 -1.497910 -1.495497 0.000004 -0.000001 -0.000009 3.678717 -2.773504 -1.208070 0.000006 -0.000002 0.000001 2.422407 -1.745191 -0.866790 -0.000002 -0.000003 -0.000001 -2.142498 -7.016390 22.755178 -0.000002 -11.672707 -0.000003 -12.518783 5.282215 3.264513 45.820645 -42.190147 58.832340 -29.541895 0.256010 -0.104699 0.116737 0.024810 39.409935 -24.644188 0.147604 0.071496 -0.000001 0.000001 -0.000001 -9.551384 -2.652896 0.835402 -0.001895 0.000820 -0.000231 -3.572679 -0.629504 -0.871181 0.000004 -0.000001 -0.000001 -2.438984 -0.429900 -0.595007 -0.000003 0.000003 -0.000005 -9.693910 -0.231003 0.964696 0.000001 -0.000001 -0.000001 -4.417496 0.026099 0.012306 -0.000001 -0.000001 0.000000 -2.448601 0.015008 0.007509 -0.000004 -0.000001 -0.000002 -9.186989 2.173497 0.643794 -0.000002 -0.000000 -0.000001 -4.008393 0.250994 -0.202910 0.000003 -0.000001 -0.000002 -2.284194 0.143505 -0.114893 0.000000 0.000001 -0.000000 -8.525201 3.753591 -0.647811 0.000005 -0.000001 0.000002 -2.465485 0.680594 -0.514087 0.000004 0.000000 0.000004 -1.808004 0.499399 -0.376400 -0.000003 0.000003 0.000002 -1.975893 -1.497802 -1.495403 -0.000000 -0.000003 -0.000001 -3.678700 -2.773590 -1.208304 -0.000003 0.000003 0.000011 -2.422293 -1.745194 -0.866695 0.000002 -0.000007 -0.000000 -10.956100 0.898702 4.188595 0.296972 -1.887219 1.021767 -0.793194 -0.000015 -43.115398 14.919604 -0.000002 0.000003 -0.000006 0.000008 -42.336796 -12.112724 -1.864288 3.036557 0.000001 -9.730394 -4.653195 -3.884859 0.000001 0.000000 10.955905 0.898796 4.188902 -47.933387 -8.779625 -4.497172 0.793300 0.000015 -43.115688 17.832908 -0.000007 -0.000001 0.000004 0.000000 -42.336807 -1.421542 1.202887 -2.469045 0.000003 -9.730512 -4.653199 -0.000001 -0.000001 0.000001 
-2.438400 -45.839020 71.627991 13.609965 2.891012 -13.000726 0.000001 5.515805 9.266302 8.062605 2.241310 3.689255 -0.000002 -0.397601 8.456187 8.062614 2.241310 3.689252 -0.000001 2.096202 10.463494 8.062606 2.241310 3.689252 -0.000000 0.441307 23.579294 -1.424842 -0.185663 -0.056424 -0.000101 -3.621795 13.315514 -0.961021 -1.327750 -0.050872 2.142500 -7.016511 22.755194 -2.265964 -6.773797 0.177613 12.516594 5.281286 3.263903 23.465776 49.087214 -46.623298 29.541904 0.255997 -0.104699 0.117343 -0.024273 -39.080266 24.644192 0.147589 0.071507 0.000000 0.000001 0.000001 9.551404 -2.652895 0.835307 0.000004 0.000004 -0.000002 3.572686 -0.629498 -0.871214 0.000004 0.000001 0.000003 2.438981 -0.429907 -0.594890 0.000000 0.000000 -0.000004 9.693884 -0.230989 0.964584 -0.000003 -0.000002 -0.000002 4.417402 0.026091 0.012298 0.000004 -0.000003 -0.000001 2.448594 0.014908 0.007484 0.000005 0.000001 0.000002 9.187014 2.173508 0.643794 -0.000805 -0.000854 0.000086 4.008391 0.251006 -0.202926 -0.000001 -0.000001 0.000002 2.284211 0.143506 -0.114895 0.000002 0.000001 0.000002 8.525185 3.753607 -0.647801 -0.000000 0.000000 0.000004 2.465498 0.680593 -0.514201 0.000003 -0.000002 0.000003 1.807992 0.499404 -0.376521 -0.000004 0.000001 0.000001 1.975900 -1.497900 -1.495491 0.000001 0.000001 -0.000006 3.678719 -2.773507 -1.208092 0.000009 0.000001 -0.000001 2.422407 -1.745197 -0.866794 -0.000000 -0.000003 -0.000001 -2.142499 -7.016399 22.755180 -0.000004 -11.348244 -0.000004 -12.518789 5.282197 3.264502 42.924792 -40.888849 61.008944 -29.541885 0.256011 -0.104702 0.119061 0.023930 40.367221 -24.644196 0.147607 0.071499 -0.000006 0.000001 -0.000003 -9.551390 -2.652897 0.835404 -0.002075 0.000893 -0.000253 -3.572663 -0.629512 -0.871181 0.000003 -0.000001 0.000003 -2.438972 -0.429890 -0.595019 -0.000002 0.000000 -0.000003 -9.693909 -0.231002 0.964702 -0.000002 -0.000000 0.000000 -4.417487 0.026105 0.012298 -0.000003 0.000002 0.000002 -2.448610 0.015018 0.007488 -0.000002 -0.000002 -0.000003 -9.186990 2.173491 0.643809 -0.000002 -0.000001 -0.000001 -4.008384 0.251001 -0.202894 -0.000001 0.000001 -0.000001 -2.284194 0.143500 -0.114889 -0.000005 0.000001 -0.000004 -8.525193 3.753587 -0.647803 0.000006 -0.000001 -0.000002 -2.465486 0.680584 -0.514080 0.000001 -0.000000 0.000004 -1.807997 0.499400 -0.376392 0.000004 0.000003 0.000002 -1.975900 -1.497802 -1.495396 -0.000003 -0.000001 0.000001 -3.678716 -2.773603 -1.208304 -0.000001 0.000003 0.000008 -2.422307 -1.745180 -0.866706 -0.000000 -0.000005 -0.000003 -10.956100 0.898703 4.188587 1.699636 -1.168132 0.853858 -0.793191 -0.000014 -43.115402 11.874750 -0.000001 0.000002 -0.000003 0.000011 -42.336803 -10.850470 -2.501761 4.150832 -0.000000 -9.730392 -4.653203 -5.375980 0.000000 -0.000001 10.955905 0.898800 4.188900 -50.944370 -10.000544 -4.046620 0.793300 0.000005 -43.115685 20.779129 -0.000008 0.000000 0.000003 -0.000015 -42.336811 -1.385755 2.062175 -4.167721 0.000003 -9.730513 -4.653198 0.000003 0.000000 -0.000000 
